<svg height="24" width="24" xmlns="http://www.w3.org/2000/svg" viewBox="0 0 64 64"><title>zip file</title><g id="Layer_2" data-name="Layer 2"><path class="cls-1" fill="#292D32"  d="M51.31,20h1.81A1.2,1.2,0,0,0,54,17.94L42.08,6.05A1.2,1.2,0,0,0,40,6.9V8.71A11.29,11.29,0,0,0,51.31,20Z"/><path class="cls-1" fill="#292D32"  d="M51.31,24h0A15.29,15.29,0,0,1,36,8.71h0A4.71,4.71,0,0,0,31.31,4h-12A11.29,11.29,0,0,0,8,15.29V48.71A11.29,11.29,0,0,0,19.31,60H20V58a2,2,0,0,0-2-2,2,2,0,0,1,0-4,2,2,0,0,0,0-4,2,2,0,0,1,0-4,2,2,0,0,0,0-4,2,2,0,0,1,0-4,2,2,0,0,0,0-4,2,2,0,0,1,0-4,2,2,0,0,0,0-4,2,2,0,0,1,0-4h2a2,2,0,0,1,2,2,2,2,0,0,0,2,2,2,2,0,0,1,0,4,2,2,0,0,0,0,4,2,2,0,0,1,0,4,2,2,0,0,0,0,4,2,2,0,0,1,0,4,2,2,0,0,0,0,4,2,2,0,0,1,0,4,2,2,0,0,0,0,4,2,2,0,0,1,0,4H44.74A11.29,11.29,0,0,0,56,48.71v-20A4.71,4.71,0,0,0,51.31,24ZM42,44.71l-3,3a1.9,1.9,0,0,1-2.69,0l-7.21-7.21a1.9,1.9,0,0,1,0-2.69.1.1,0,0,0,0-.14A2,2,0,0,1,32,34.91l.1-.1a1.9,1.9,0,0,1,2.69,0L42,42A1.9,1.9,0,0,1,42,44.71Z"/></g></svg>