<svg height="24" width="24" xmlns="http://www.w3.org/2000/svg" viewBox="0 0 64 64"><title>text file</title><g id="Layer_2" data-name="Layer 2"><path class="cls-1" fill="#292D32"  d="M51.3,20h1.81A1.2,1.2,0,0,0,54,17.94L42.07,6.05A1.2,1.2,0,0,0,40,6.9V8.71A11.29,11.29,0,0,0,51.3,20Z"/><path class="cls-1" fill="#292D32"  d="M51.3,24h0A15.29,15.29,0,0,1,36,8.71h0A4.71,4.71,0,0,0,31.3,4h-12A11.29,11.29,0,0,0,8,15.29V48.71A11.29,11.29,0,0,0,19.3,60H44.73A11.29,11.29,0,0,0,56,48.71v-20A4.71,4.71,0,0,0,51.3,24ZM30,48H20a2,2,0,0,1,0-4H30a2,2,0,0,1,0,4Zm14-8H20a2,2,0,0,1,0-4H44a2,2,0,0,1,0,4Zm0-8H20a2,2,0,0,1,0-4H44a2,2,0,0,1,0,4Z"/></g></svg>