<svg height="24" width="24" xmlns="http://www.w3.org/2000/svg" viewBox="0 0 64 64"><title>image file</title><g id="Layer_2" data-name="Layer 2"><path class="cls-1" fill="#292D32"  d="M51.34,20h1.81A1.2,1.2,0,0,0,54,17.94L42.11,6.05a1.2,1.2,0,0,0-2.05.85V8.71A11.29,11.29,0,0,0,51.34,20Z"/><path class="cls-1" fill="#292D32"  d="M51.34,24h0A15.29,15.29,0,0,1,36.06,8.71h0A4.71,4.71,0,0,0,31.34,4h-12A11.29,11.29,0,0,0,8.05,15.29V48.71A11.29,11.29,0,0,0,19.34,60H44.77A11.29,11.29,0,0,0,56.05,48.71v-20A4.71,4.71,0,0,0,51.34,24ZM24,16a6,6,0,1,1-6,6A6,6,0,0,1,24,16ZM48,42.67A5.33,5.33,0,0,1,42.67,48H18.53a1,1,0,0,1-.74-1.79L28.7,35.3a1.84,1.84,0,0,1,2.6,0l3.4,3.4a1.84,1.84,0,0,0,2.6,0l7.56-7.56A1.84,1.84,0,0,1,48,32.44Z"/></g></svg>