<svg height="24" width="24"  xmlns="http://www.w3.org/2000/svg" viewBox="0 0 64 64"><title>pdf</title><g id="Layer_2" data-name="Layer 2"><path class="cls-1" fill="#292D32"  d="M51.31,20h1.81A1.2,1.2,0,0,0,54,17.94L42.08,6.05A1.2,1.2,0,0,0,40,6.9V8.71A11.29,11.29,0,0,0,51.31,20Z"/><path class="cls-1" fill="#292D32"  d="M34.76,32.13a3.13,3.13,0,0,0-1.19-.88,4.84,4.84,0,0,0-1.91-.32h-1.3v8.59H31.7a5,5,0,0,0,1.78-.27,3,3,0,0,0,1.21-.83A3.56,3.56,0,0,0,35.41,37a6.86,6.86,0,0,0,.24-1.91,6.34,6.34,0,0,0-.21-1.67A3.57,3.57,0,0,0,34.76,32.13Z"/><path class="cls-1" fill="#292D32"  d="M51.31,24h0A15.29,15.29,0,0,1,36,8.71h0A4.71,4.71,0,0,0,31.31,4h-12A11.29,11.29,0,0,0,8,15.29V48.71A11.29,11.29,0,0,0,19.31,60H44.74A11.29,11.29,0,0,0,56,48.71v-20A4.71,4.71,0,0,0,51.31,24ZM25.48,34.64a3.63,3.63,0,0,1-1,1.38,4.25,4.25,0,0,1-1.56.85,7.21,7.21,0,0,1-2.17.29H19.73v4a.27.27,0,0,1-.06.18.44.44,0,0,1-.21.13,2,2,0,0,1-.39.08,6.63,6.63,0,0,1-1.25,0,2,2,0,0,1-.4-.08.41.41,0,0,1-.21-.13.28.28,0,0,1-.06-.18V29.83a.91.91,0,0,1,.24-.69.88.88,0,0,1,.63-.23h3q.45,0,.85,0a9.35,9.35,0,0,1,1,.15,4.33,4.33,0,0,1,1.15.42,3.43,3.43,0,0,1,1,.77,3.2,3.2,0,0,1,.63,1.08,4.24,4.24,0,0,1,.21,1.39A5,5,0,0,1,25.48,34.64ZM37.85,38a5,5,0,0,1-1.3,2,5.22,5.22,0,0,1-2.07,1.15,10.11,10.11,0,0,1-2.9.37h-3a.8.8,0,0,1-.54-.19.78.78,0,0,1-.22-.62v-11a.78.78,0,0,1,.22-.62.8.8,0,0,1,.54-.19h3.24a9.07,9.07,0,0,1,2.87.4,5.19,5.19,0,0,1,2,1.17,5,5,0,0,1,1.23,1.92A7.66,7.66,0,0,1,38.3,35,8.64,8.64,0,0,1,37.85,38Zm9.63-7.56a1.1,1.1,0,0,1-.08.32.51.51,0,0,1-.12.18.23.23,0,0,1-.16.06H43v3.4h3.88a.26.26,0,0,1,.16,0,.41.41,0,0,1,.12.17,1.09,1.09,0,0,1,.08.31,4.9,4.9,0,0,1,0,1,1.22,1.22,0,0,1-.08.32.44.44,0,0,1-.12.18.24.24,0,0,1-.16.05H43v4.71a.3.3,0,0,1-.06.19.43.43,0,0,1-.21.13,1.87,1.87,0,0,1-.4.08,6.63,6.63,0,0,1-1.25,0,1.78,1.78,0,0,1-.4-.08.47.47,0,0,1-.21-.13.28.28,0,0,1-.06-.19V29.73a.78.78,0,0,1,.22-.62.8.8,0,0,1,.54-.19h5.95a.25.25,0,0,1,.16.05.45.45,0,0,1,.12.18,1.18,1.18,0,0,1,.08.33,4.34,4.34,0,0,1,0,.5A4.2,4.2,0,0,1,47.48,30.46Z"/><path class="cls-1" fill="#292D32"   d="M22.32,31.21A1.92,1.92,0,0,0,21.6,31a5.58,5.58,0,0,0-.78-.05H19.73v4.29h1.15a2.77,2.77,0,0,0,1-.17,1.75,1.75,0,0,0,.68-.46,2,2,0,0,0,.4-.71,2.86,2.86,0,0,0,.14-.9,2.27,2.27,0,0,0-.23-1.09A1.62,1.62,0,0,0,22.32,31.21Z"/></g></svg>