<svg height="24" width="24" xmlns="http://www.w3.org/2000/svg" viewBox="0 0 64 64"><title>play file</title><g id="Layer_2" data-name="Layer 2"><path class="cls-1" fill="#292D32"  d="M51.29,20H53.1a1.2,1.2,0,0,0,.85-2.05L42.06,6.05A1.2,1.2,0,0,0,40,6.9V8.71A11.29,11.29,0,0,0,51.29,20Z"/><path class="cls-1" fill="#292D32"  d="M51.29,24h0A15.29,15.29,0,0,1,36,8.71h0A4.71,4.71,0,0,0,31.29,4h-12A11.29,11.29,0,0,0,8,15.29V48.71A11.29,11.29,0,0,0,19.29,60H44.71A11.29,11.29,0,0,0,56,48.71v-20A4.71,4.71,0,0,0,51.29,24ZM38.86,40.12,27.93,47.33A2.54,2.54,0,0,1,24,45.21V30.79a2.54,2.54,0,0,1,3.93-2.12l10.93,7.21A2.54,2.54,0,0,1,38.86,40.12Z"/></g></svg>