<svg height="24" width="24" xmlns="http://www.w3.org/2000/svg" viewBox="0 0 64 64"><title>bar chart file</title><g id="Layer_2" data-name="Layer 2"><path class="cls-1" fill="#292D32"  d="M51.32,20h1.81A1.2,1.2,0,0,0,54,17.94L42.09,6.05A1.2,1.2,0,0,0,40,6.9V8.71A11.29,11.29,0,0,0,51.32,20Z"/><path class="cls-1" fill="#292D32"  d="M51.32,24h0A15.29,15.29,0,0,1,36,8.71h0A4.71,4.71,0,0,0,31.32,4h-12A11.29,11.29,0,0,0,8,15.29V48.71A11.29,11.29,0,0,0,19.32,60H44.75A11.29,11.29,0,0,0,56,48.71v-20A4.71,4.71,0,0,0,51.32,24ZM24,45.73A2.27,2.27,0,0,1,21.73,48H18.27A2.27,2.27,0,0,1,16,45.73V32.27A2.27,2.27,0,0,1,18.27,30h3.47A2.27,2.27,0,0,1,24,32.27Zm12,0A2.27,2.27,0,0,1,33.77,48H30.3A2.27,2.27,0,0,1,28,45.73V26.27A2.27,2.27,0,0,1,30.3,24h3.47A2.27,2.27,0,0,1,36,26.27Zm12,0A2.27,2.27,0,0,1,45.8,48H42.33a2.27,2.27,0,0,1-2.27-2.27V38.21a2.27,2.27,0,0,1,2.27-2.27H45.8a2.27,2.27,0,0,1,2.27,2.27Z"/></g></svg>