<svg height="24" width="24" xmlns="http://www.w3.org/2000/svg" viewBox="0 0 64 64"><title>specific audio file</title><g id="Layer_2" data-name="Layer 2"><path class="cls-1" fill="#292D32"  d="M51.36,20h1.81A1.2,1.2,0,0,0,54,17.94L42.13,6.05a1.2,1.2,0,0,0-2.05.85V8.71A11.29,11.29,0,0,0,51.36,20Z"/><path class="cls-1" fill="#292D32"  d="M51.36,24h0A15.29,15.29,0,0,1,36.07,8.71h0A4.71,4.71,0,0,0,31.36,4h-12A11.29,11.29,0,0,0,8.07,15.29V48.71A11.29,11.29,0,0,0,19.36,60H44.78A11.29,11.29,0,0,0,56.07,48.71v-20A4.71,4.71,0,0,0,51.36,24ZM22,40.36A1.64,1.64,0,0,1,20.36,42h-.71A1.64,1.64,0,0,1,18,40.36V31.64A1.64,1.64,0,0,1,19.64,30h.71A1.64,1.64,0,0,1,22,31.64Zm6,4A1.64,1.64,0,0,1,26.36,46h-.71A1.64,1.64,0,0,1,24,44.36V27.64A1.64,1.64,0,0,1,25.64,26h.71A1.64,1.64,0,0,1,28,27.64Zm6,2.08a1.64,1.64,0,0,1-1.64,1.64h-.71A1.64,1.64,0,0,1,30,46.44V23.64A1.64,1.64,0,0,1,31.64,22h.71A1.64,1.64,0,0,1,34,23.64Zm6-2.08A1.64,1.64,0,0,1,38.36,46h-.71A1.64,1.64,0,0,1,36,44.36V27.64A1.64,1.64,0,0,1,37.64,26h.71A1.64,1.64,0,0,1,40,27.64Zm6-4A1.64,1.64,0,0,1,44.36,42h-.71A1.64,1.64,0,0,1,42,40.36V31.64A1.64,1.64,0,0,1,43.64,30h.71A1.64,1.64,0,0,1,46,31.64Z"/></g></svg>